<mxfile host="app.diagrams.net" modified="2024-04-19T06:17:35.528Z" agent="Mozilla/5.0 (Macintosh; Intel Mac OS X 10_15_7) AppleWebKit/537.36 (KHTML, like Gecko) Chrome/124.0.0.0 Safari/537.36 Edg/124.0.0.0" version="24.2.3" etag="phm24MjpsWuCdLG77bGY" type="github">
  <diagram name="第 1 页" id="i-fXHxEqAlxavV9L5Ojd">
    <mxGraphModel>
      <root>
        <mxCell id="0" />
        <mxCell id="1" parent="0" />
      </root>
    </mxGraphModel>
  </diagram>
</mxfile>
